<svg width="20" height="19" viewBox="0 0 20 19" fill="none" xmlns="http://www.w3.org/2000/svg">
<path fill-rule="evenodd" clip-rule="evenodd" d="M10.4315 3.77491C11.139 3.74131 11.7399 4.28802 11.773 4.99554C11.8066 5.70348 11.2599 6.30435 10.5524 6.33752C9.84488 6.37111 9.24401 5.82441 9.21042 5.11647C9.17725 4.40895 9.72395 3.80808 10.4315 3.77491Z" fill="#C4C4C4"/>
<path fill-rule="evenodd" clip-rule="evenodd" d="M7.90033 9.66475L7.66057 9.02987C7.64755 8.9946 7.65217 8.95849 7.67359 8.92742C8.22407 8.14473 9.05714 7.43721 10.0766 7.53673C10.7388 7.60055 11.1948 8.22871 11.0516 8.87787C10.6813 10.5553 10.2845 12.2269 9.91414 13.904C9.86375 14.1324 10.0804 14.3273 10.3021 14.2534C10.68 14.127 11.0332 13.6428 11.262 13.3308C11.3141 13.2599 11.4237 13.275 11.4552 13.3573L11.6941 13.9918C11.7075 14.027 11.7033 14.0636 11.6815 14.0946C11.1306 14.8773 10.2979 15.5844 9.278 15.4849C8.61625 15.4207 8.15982 14.7933 8.30343 14.1438C8.67377 12.4663 9.07057 10.7951 9.4405 9.11763C9.49089 8.88921 9.27464 8.69437 9.05294 8.7687C8.67503 8.89466 8.32232 9.37838 8.09264 9.69078C8.04057 9.76175 7.93098 9.74663 7.90033 9.66475Z" fill="#C4C4C4"/>
<path d="M9.71354 0.265625C14.8833 0.265625 19.0814 4.46373 19.0814 9.63346C19.0814 14.8032 14.8833 19.0013 9.71354 19.0013C4.5438 19.0013 0.345703 14.8032 0.345703 9.63346C0.345703 4.46373 4.5438 0.265625 9.71354 0.265625ZM9.71354 1.2255C5.06699 1.2255 1.30558 4.98691 1.30558 9.63346C1.30558 14.28 5.06699 18.0414 9.71354 18.0414C14.3601 18.0414 18.1215 14.28 18.1215 9.63346C18.1215 4.98691 14.3601 1.2255 9.71354 1.2255Z" fill="#C4C4C4"/>
</svg>
