<svg width="30" height="30" viewBox="0 0 30 30" fill="none" xmlns="http://www.w3.org/2000/svg">
<path d="M4.75841 10.582C4.56374 10.582 4.37705 10.6594 4.2394 10.797C4.10175 10.9347 4.02441 11.1214 4.02441 11.316C4.02441 11.5107 4.10175 11.6974 4.2394 11.835C4.37705 11.9727 4.56374 12.05 4.75841 12.05H21.5787C21.7733 12.05 21.96 11.9727 22.0977 11.835C22.2353 11.6974 22.3127 11.5107 22.3127 11.316C22.3127 11.1214 22.2353 10.9347 22.0977 10.797C21.96 10.6594 21.7733 10.582 21.5787 10.582H4.75841Z" fill="#C4C4C4" stroke="black" stroke-width="0.3"/>
<path d="M14.0182 24.2207H8.17848V20.6212C8.17848 20.0605 7.95577 19.5229 7.55933 19.1264C7.1629 18.73 6.62522 18.5073 6.06457 18.5073H2.46799V6.02935C2.46799 5.85804 2.53604 5.69375 2.65718 5.57262C2.77831 5.45149 2.9426 5.38343 3.11391 5.38343H5.63886V6.49324C5.63963 6.89635 5.80011 7.28273 6.08516 7.56778C6.3702 7.85282 6.75658 8.0133 7.1597 8.01408H9.14736C9.55047 8.0133 9.93685 7.85282 10.2219 7.56778C10.5069 7.28273 10.6674 6.89635 10.6682 6.49324V5.38343H15.6594V6.49324C15.6601 6.89635 15.8206 7.28273 16.1057 7.56778C16.3907 7.85282 16.7771 8.0133 17.1802 8.01408H19.1679C19.571 8.0133 19.9574 7.85282 20.2424 7.56778C20.5275 7.28273 20.6879 6.89635 20.6887 6.49324V5.38343H23.2137C23.385 5.38343 23.5493 5.45149 23.6704 5.57262C23.7915 5.69375 23.8596 5.85804 23.8596 6.02935V14.0211C23.8596 14.2158 23.9369 14.4025 24.0746 14.5401C24.2122 14.6778 24.3989 14.7551 24.5936 14.7551C24.7882 14.7551 24.9749 14.6778 25.1126 14.5401C25.2502 14.4025 25.3276 14.2158 25.3276 14.0211V6.02935C25.3276 5.46871 25.1048 4.93103 24.7084 4.53459C24.312 4.13816 23.7743 3.91544 23.2137 3.91544H20.6887V2.52085C20.6879 2.11926 20.5287 1.7342 20.2455 1.4494C19.9624 1.16461 19.5783 1.00311 19.1767 1.00001H17.189C16.7859 1.00079 16.3995 1.16127 16.1145 1.44631C15.8294 1.73136 15.669 2.11774 15.6682 2.52085V3.91544H10.677V2.52085C10.6766 2.3205 10.6367 2.12219 10.5596 1.93727C10.4825 1.75235 10.3697 1.58446 10.2276 1.4432C10.0855 1.30194 9.91696 1.19008 9.73161 1.11403C9.54625 1.03799 9.34771 0.999239 9.14736 1.00001H7.1597C6.75658 1.00079 6.3702 1.16127 6.08516 1.44631C5.80011 1.73136 5.63963 2.11774 5.63886 2.52085V3.91544H3.11391C2.55327 3.91544 2.01559 4.13816 1.61915 4.53459C1.22272 4.93103 1 5.46871 1 6.02935V19.5789C0.999829 19.6754 1.01867 19.7709 1.05544 19.8601C1.09222 19.9492 1.14621 20.0303 1.21433 20.0986L6.58718 25.4714C6.65547 25.5396 6.73651 25.5935 6.82568 25.6303C6.91485 25.6671 7.01039 25.6859 7.10685 25.6858H14.0182C14.2128 25.6858 14.3995 25.6084 14.5372 25.4708C14.6748 25.3331 14.7521 25.1464 14.7521 24.9518C14.7521 24.7571 14.6748 24.5704 14.5372 24.4328C14.3995 24.2951 14.2128 24.2178 14.0182 24.2178V24.2207ZM17.1332 2.52085C17.1332 2.51366 17.1347 2.50654 17.1375 2.49993C17.1404 2.49331 17.1445 2.48735 17.1497 2.4824C17.155 2.47746 17.1611 2.47363 17.1679 2.47115C17.1746 2.46867 17.1818 2.4676 17.189 2.468H19.1767C19.1907 2.468 19.2041 2.47357 19.214 2.48348C19.224 2.49339 19.2295 2.50683 19.2295 2.52085V6.49324C19.2295 6.50725 19.224 6.52069 19.214 6.53061C19.2041 6.54052 19.1907 6.54608 19.1767 6.54608H17.189C17.175 6.54608 17.1616 6.54052 17.1516 6.53061C17.1417 6.52069 17.1362 6.50725 17.1362 6.49324L17.1332 2.52085ZM7.10391 2.52085C7.1039 2.51366 7.10536 2.50654 7.1082 2.49993C7.11103 2.49331 7.11519 2.48735 7.12041 2.4824C7.12564 2.47746 7.13181 2.47363 7.13857 2.47115C7.14532 2.46867 7.15251 2.4676 7.1597 2.468H9.14736C9.16137 2.468 9.17481 2.47357 9.18472 2.48348C9.19464 2.49339 9.2002 2.50683 9.2002 2.52085V6.49324C9.2002 6.50725 9.19464 6.52069 9.18472 6.53061C9.17481 6.54052 9.16137 6.54608 9.14736 6.54608H7.1597C7.14568 6.54608 7.13224 6.54052 7.12233 6.53061C7.11242 6.52069 7.10685 6.50725 7.10685 6.49324L7.10391 2.52085ZM3.17263 19.9782H6.07045C6.24175 19.9782 6.40604 20.0463 6.52718 20.1674C6.64831 20.2885 6.71636 20.4528 6.71636 20.6241V23.519L3.17263 19.9782Z" fill="#C4C4C4" stroke="black" stroke-width="0.3"/>
<path d="M22.6619 16.2656C21.3264 16.2656 20.0208 16.6617 18.9103 17.4037C17.7998 18.1457 16.9343 19.2003 16.4232 20.4342C15.9121 21.6681 15.7784 23.0259 16.0389 24.3358C16.2995 25.6457 16.9426 26.8489 17.887 27.7933C18.8314 28.7377 20.0346 29.3808 21.3445 29.6414C22.6545 29.902 24.0122 29.7682 25.2461 29.2571C26.48 28.746 27.5347 27.8805 28.2767 26.77C29.0187 25.6595 29.4147 24.354 29.4147 23.0184C29.4108 21.2286 28.6981 19.5133 27.4326 18.2477C26.167 16.9822 24.4517 16.2695 22.6619 16.2656ZM22.6619 28.3032C21.6167 28.3032 20.595 27.9932 19.7259 27.4125C18.8568 26.8318 18.1794 26.0064 17.7795 25.0408C17.3795 24.0751 17.2748 23.0125 17.4787 21.9874C17.6826 20.9622 18.186 20.0206 18.925 19.2815C19.6641 18.5424 20.6058 18.0391 21.6309 17.8352C22.6561 17.6312 23.7187 17.7359 24.6843 18.1359C25.65 18.5359 26.4754 19.2132 27.0561 20.0823C27.6368 20.9514 27.9467 21.9732 27.9467 23.0184C27.9467 24.42 27.3899 25.7642 26.3988 26.7553C25.4078 27.7464 24.0636 28.3032 22.6619 28.3032Z" fill="#C4C4C4" stroke="black" stroke-width="0.3"/>
<path d="M25.4862 22.2828L23.3869 22.2975V19.9957C23.3869 19.801 23.3096 19.6144 23.172 19.4767C23.0343 19.339 22.8476 19.2617 22.6529 19.2617C22.4583 19.2617 22.2716 19.339 22.1339 19.4767C21.9963 19.6144 21.9189 19.801 21.9189 19.9957V23.0374C21.9189 23.2321 21.9963 23.4188 22.1339 23.5564C22.2716 23.6941 22.4583 23.7714 22.6529 23.7714L25.492 23.7508C25.6867 23.7508 25.8734 23.6735 26.0111 23.5359C26.1487 23.3982 26.226 23.2115 26.226 23.0168C26.226 22.8222 26.1487 22.6355 26.0111 22.4978C25.8734 22.3602 25.6867 22.2828 25.492 22.2828H25.4862Z" fill="#C4C4C4" stroke="black" stroke-width="0.3"/>
</svg>
