<svg width="28" height="28" viewBox="0 0 28 28" fill="none" xmlns="http://www.w3.org/2000/svg">
<path d="M5.57926 0.617302C4.84558 0.617302 4.23851 1.21956 4.23925 1.95378L4.24283 5.07552C4.22931 5.68366 5.1485 5.68366 5.135 5.07552L5.13143 1.95378C5.13117 1.69948 5.3244 1.50599 5.57926 1.50599H19.4062V3.73898C19.4062 4.47268 20.0126 5.07552 20.7462 5.07552H22.9758V7.30861C22.9888 7.89033 23.8551 7.89033 23.868 7.30861V4.63117C23.868 4.51248 23.8206 4.39866 23.7364 4.31495L20.1703 0.745367C20.086 0.662416 19.9723 0.616356 19.8541 0.617199L5.57926 0.617302ZM20.2984 2.135L22.3441 4.18338H20.7462C20.4914 4.18338 20.2984 3.99384 20.2984 3.73898V2.135ZM7.25557 4.18338C6.64744 4.16989 6.64744 5.08902 7.25557 5.07552H17.1802C17.7883 5.08901 17.7883 4.16988 17.1802 4.18338H7.25557ZM2.01927 6.86077C1.27786 6.85065 0.675781 7.46359 0.675781 8.1973V26.0416C0.675781 26.7753 1.27949 27.3826 2.01317 27.3826H26.101C26.8347 27.3826 27.441 26.7753 27.441 26.0416V10.8747C27.441 10.141 26.8347 9.53816 26.101 9.53816H11.5657L9.02075 6.99233C8.93704 6.9082 8.82322 6.86082 8.70449 6.86082L2.01927 6.86077ZM11.8262 6.86077C11.2181 6.84728 11.2181 7.76645 11.8262 7.75296H20.7497C21.3579 7.76645 21.3579 6.84728 20.7497 6.86077H11.8262ZM1.56883 8.1973C1.56883 7.94248 1.7592 7.74935 2.00969 7.75296H8.51978L11.0656 10.2988C11.1491 10.3827 11.2626 10.4301 11.381 10.4303H26.101C26.3559 10.4303 26.5489 10.6198 26.5489 10.8746V26.0425C26.5489 26.2973 26.3559 26.4903 26.101 26.4903H2.01317C1.75833 26.4903 1.56883 26.2973 1.56883 26.0421V8.1973ZM13.6106 13.5538V14.4669C12.1068 14.5655 11.6152 15.3218 10.4888 15.3382C10.0741 15.3382 9.6278 15.1738 9.46336 15.0219C9.00667 14.6003 8.43712 15.2705 8.83518 15.6544C9.12944 15.9383 9.58494 16.0981 9.83452 16.1546L8.29499 19.6196C8.27041 19.6767 8.25855 19.7386 8.25926 19.8007C8.25926 19.8007 8.25302 20.3382 8.52935 20.8907C8.80558 21.4432 9.38301 22.0295 10.488 22.0295C11.5929 22.0295 12.1712 21.4432 12.4474 20.8907C12.7237 20.3382 12.7167 19.8007 12.7167 19.8007C12.7175 19.7385 12.7055 19.6767 12.6809 19.6196L11.1423 16.1572C12.0544 16.0124 12.5902 15.3405 14.0506 15.3399C15.5166 15.3416 16.0521 16.0155 16.9658 16.1606L15.4272 19.623C15.4026 19.6802 15.3905 19.7421 15.3914 19.8042C15.3914 19.8042 15.3845 20.3417 15.6606 20.8942C15.9369 21.4467 16.5152 22.033 17.6201 22.033C18.7251 22.033 19.3025 21.4467 19.5787 20.8942C19.8551 20.3417 19.8488 19.8042 19.8488 19.8042C19.8497 19.742 19.8377 19.6802 19.8131 19.623L18.2736 16.158C18.5231 16.1015 18.9786 15.9418 19.2729 15.6579C19.671 15.2739 19.1014 14.6038 18.6447 15.0254C18.4803 15.1771 18.034 15.3417 17.6192 15.3417C16.4929 15.3248 16.0013 14.5689 14.4975 14.4704V13.5573C14.5002 13.3108 14.304 13.1087 14.0541 13.1042C13.8041 13.1051 13.6078 13.3074 13.6106 13.5538H13.6106ZM14.0558 16.2242C13.8327 16.2242 13.6106 16.3728 13.6106 16.6703V22.9225H11.8036C11.2013 22.9635 11.2423 23.8295 11.8245 23.8147H14.0506V23.8181H16.2836C16.8658 23.8332 16.9068 22.9668 16.3045 22.9259H14.4975V16.6737C14.4975 16.3786 14.2788 16.2309 14.0576 16.2285V16.2234L14.0558 16.2242ZM10.488 16.8829L11.584 19.3521H9.39278L10.488 16.8829ZM17.6201 16.8863L18.7153 19.3554H16.5241L17.6201 16.8863ZM9.22985 20.245H11.7469C11.7469 20.245 11.5897 21.1372 10.4888 21.1372C9.38796 21.1372 9.22985 20.245 9.22985 20.245ZM16.3612 20.2484H18.8782C18.8782 20.2484 18.7201 21.1406 17.6193 21.1406C16.5184 21.1406 16.3612 20.2484 16.3612 20.2484Z" fill="#C4C4C4"/>
</svg>
