<svg width="29" height="29" viewBox="0 0 29 29" fill="none" xmlns="http://www.w3.org/2000/svg">
<path d="M3.44874 21.2432L4.40334 20.2886V23.9825C4.40334 24.2315 4.56936 24.3975 4.81838 24.3975C5.06741 24.3975 5.23343 24.2315 5.23343 23.9825V20.2886L6.18803 21.2432C6.35404 21.4092 6.60307 21.4092 6.76909 21.2432C6.9351 21.0772 6.9351 20.8281 6.76909 20.6621L5.10891 18.9605C5.0259 18.8774 4.9429 18.8359 4.81838 18.8359C4.69387 18.8359 4.61086 18.8774 4.52785 18.9605L2.86768 20.6621C2.70166 20.8281 2.70166 21.0772 2.86768 21.2432C2.99219 21.4092 3.28272 21.4092 3.44874 21.2432Z" fill="#C4C4C4" stroke="#C4C4C4" stroke-width="0.2"/>
<path d="M8.55323 21.2432L9.50783 20.2886V23.9825C9.50783 24.2315 9.67385 24.3975 9.92287 24.3975C10.1719 24.3975 10.3379 24.2315 10.3379 23.9825V20.2886L11.2925 21.2432C11.4585 21.4092 11.7076 21.4092 11.8736 21.2432C12.0396 21.0772 12.0396 20.8281 11.8736 20.6621L10.2134 18.9605C10.1304 18.8774 10.0474 18.8359 9.92287 18.8359C9.79836 18.8359 9.71535 18.8774 9.63234 18.9605L7.97217 20.6621C7.80615 20.8281 7.80615 21.0772 7.97217 21.2432C8.13819 21.4092 8.38721 21.4092 8.55323 21.2432Z" fill="#C4C4C4" stroke="#C4C4C4" stroke-width="0.2"/>
<path d="M11.6246 25.3516H3.11622C2.86719 25.3516 2.70117 25.5176 2.70117 25.7666C2.70117 26.0156 2.86719 26.1816 3.11622 26.1816H11.5831C11.8321 26.1816 11.9981 26.0156 11.9981 25.7666C12.0397 25.5176 11.8321 25.3516 11.6246 25.3516Z" fill="#C4C4C4" stroke="#C4C4C4" stroke-width="0.2"/>
<path d="M28.4344 4.26847C28.4344 4.10245 28.3514 3.97794 28.1854 3.89493L20.5486 1.03113C20.4655 0.989624 20.341 0.989624 20.258 1.03113L12.4137 3.85342C12.2477 3.89493 12.1647 4.06095 12.1232 4.22696V6.5097C12.1232 6.67572 12.2477 6.84174 12.3722 6.88324L12.6212 6.96625V11.3657C1.53956 11.3657 12.9118 11.3657 1.41504 11.3657C1.16602 11.3657 1 11.5317 1 11.7808C1 14.6861 1 22.1568 1 27.9675C1 28.2165 1.16602 28.3825 1.41504 28.3825H18.6809C18.9299 28.3825 19.0959 28.2165 19.0959 27.9675V16.8028L20.2165 17.2593C20.2995 17.3008 20.424 17.3008 20.507 17.2593L27.5628 14.52C27.7288 14.4785 27.8118 14.3125 27.8118 14.1465V7.09076L28.1023 6.96625C28.2684 6.88324 28.3514 6.75873 28.3514 6.59271V4.26847C28.4344 4.26847 28.4344 4.26847 28.4344 4.26847ZM12.9948 6.26068V4.84953L20.009 7.58882V8.91696L12.9948 6.26068ZM20.424 1.86122L26.8987 4.26847C21.2541 6.55121 21.3786 6.4682 20.424 6.88324L13.7418 4.26847L20.424 1.86122ZM18.3073 14.9351H12.8287V12.1958H18.3073V14.9351ZM11.9987 12.1958V17.0933L10.38 15.3916C10.297 15.3086 10.1725 15.2671 10.0895 15.2671C9.96494 15.2671 9.88193 15.3086 9.79892 15.3916L8.18025 17.0933V12.1958H11.9987ZM7.35017 12.1958V14.9351H1.87159V12.1958H7.35017ZM1.87159 27.5524V15.7652H7.35017V18.1309C7.35017 18.2969 7.47468 18.463 7.59919 18.5045C7.76521 18.5875 7.93123 18.546 8.05574 18.4215L10.0895 16.2632L12.1232 18.4215C12.2477 18.546 12.4137 18.5875 12.5797 18.5045C12.7457 18.4215 12.8287 18.2969 12.8287 18.1309V15.7652H18.3073V27.5524H1.87159ZM19.1374 11.7808C19.1374 11.5317 18.9714 11.3657 18.7224 11.3657H13.4928V7.33979L20.009 9.83005V16.2217L19.1374 15.8897C19.1374 15.0181 19.1374 12.7354 19.1374 11.7808ZM27.0647 13.856L20.8391 16.2632V9.87156L27.0647 7.4228V13.856ZM20.8391 8.95846V7.58882L27.6043 4.89103V6.30218C27.5213 6.30218 20.9221 8.91696 20.8391 8.95846Z" fill="#C4C4C4" stroke="#C4C4C4" stroke-width="0.2"/>
</svg>
