<svg width="29" height="40" viewBox="0 0 29 40" fill="none" xmlns="http://www.w3.org/2000/svg">
<path d="M12.886 7.39109H23.7909C24.1365 7.39109 24.4161 7.11144 24.4161 6.76586C24.4161 6.42027 24.1365 6.14062 23.7909 6.14062H12.886C12.5404 6.14062 12.2607 6.42027 12.2607 6.76586C12.2607 7.11144 12.5404 7.39109 12.886 7.39109Z" fill="#C4C4C4"/>
<path d="M4.6975 12.5161H23.7903C24.1359 12.5161 24.4155 12.2364 24.4155 11.8909C24.4155 11.5453 24.1359 11.2656 23.7903 11.2656H4.6975C4.35191 11.2656 4.07227 11.5453 4.07227 11.8909C4.07227 12.2364 4.35191 12.5161 4.6975 12.5161Z" fill="#C4C4C4"/>
<path d="M23.7904 16.3906H7.70531C7.35973 16.3906 7.08008 16.6703 7.08008 17.0159C7.08008 17.3614 7.35973 17.6411 7.70531 17.6411H23.7904C24.136 17.6411 24.4156 17.3614 24.4156 17.0159C24.4156 16.6703 24.136 16.3906 23.7904 16.3906Z" fill="#C4C4C4"/>
<path d="M24.4155 22.1448C24.4155 21.7992 24.1359 21.5195 23.7903 21.5195H4.6975C4.35191 21.5195 4.07227 21.7992 4.07227 22.1448C4.07227 22.4903 4.35191 22.77 4.6975 22.77H23.7903C24.1359 22.77 24.4155 22.4903 24.4155 22.1448Z" fill="#C4C4C4"/>
<path d="M17.5083 39.9098C17.6066 39.9678 17.7159 39.9966 17.8258 39.9966C17.9303 39.9966 18.0347 39.9703 18.1293 39.9178L20.0013 38.8792L21.874 39.9178C22.0688 40.0259 22.3038 40.0234 22.4949 39.9098C22.6854 39.7975 22.8027 39.593 22.8027 39.3713V36.9388H26.479C27.589 36.9388 28.492 36.0357 28.492 34.9257V2.00697C28.492 0.900603 27.589 0 26.479 0C21.7514 0 11.854 0 7.39045 0C7.27265 0 7.06796 0.0622983 6.94594 0.184394L0.198899 6.9314C0.0763096 7.04671 0 7.24731 0 7.38434V36.3135C0 36.6591 0.279648 36.9388 0.625232 36.9388H17.2006V39.3713C17.2006 39.593 17.3178 39.7975 17.5083 39.9098ZM16.4875 30.5735L15.571 29.7675L16.4875 28.9616C16.6596 28.8101 16.7347 28.5775 16.6847 28.354L16.416 27.1659L17.6341 27.0511C17.8619 27.0297 18.0591 26.8862 18.1495 26.6762L18.63 25.5613L19.6753 26.1847C19.8719 26.3019 20.118 26.3019 20.3146 26.1847L21.366 25.5606L21.8471 26.6762C21.9375 26.8868 22.1359 27.0309 22.3643 27.0517L23.5824 27.1622L23.3174 28.3565C23.2679 28.5794 23.3436 28.8108 23.5152 28.9616L24.4317 29.7675L23.5152 30.5735C23.3436 30.7243 23.2679 30.9569 23.318 31.1804L23.5867 32.3729L22.3704 32.4834C22.1426 32.5041 21.9448 32.6476 21.8538 32.8571L21.6049 33.4312C21.6046 33.4321 21.6039 33.4326 21.6035 33.4334L21.3666 33.9811L20.3146 33.3565C20.2163 33.2979 20.1057 33.2686 19.9952 33.2686L19.9951 33.2686C19.8844 33.2686 19.7736 33.2979 19.6753 33.3565L18.6312 33.9793L18.4004 33.4414C18.4003 33.441 18.4 33.4408 18.3998 33.4405L18.1501 32.8589C18.0597 32.6488 17.8619 32.5054 17.6341 32.484L16.416 32.3692L16.6847 31.181C16.7347 30.9575 16.6596 30.7249 16.4875 30.5735ZM21.5522 38.3095C20.4682 37.732 20.1428 37.3709 19.6979 37.6177L18.4511 38.3095V35.4966C18.6479 35.4602 18.6346 35.4183 19.9958 34.6216L21.3391 35.4191C21.3988 35.4545 21.4637 35.4756 21.5302 35.4897C21.5379 35.4913 21.5445 35.4965 21.5522 35.4978V38.3095ZM6.76278 2.1358V6.18638C6.76278 6.50511 6.50328 6.7646 6.18456 6.7646H2.13398L6.76278 2.1358ZM1.25047 35.6883V8.01506H6.18455C7.19262 8.01506 8.01324 7.19444 8.01324 6.18638V1.25168H26.482C26.4825 1.25168 26.483 1.25138 26.4835 1.25138C26.902 1.25397 27.2416 1.59155 27.2416 2.00697V34.9257C27.2416 35.3464 26.8996 35.6883 26.479 35.6883H22.8027V33.8111L22.8527 33.6954L24.4097 33.5537C24.5886 33.5372 24.7522 33.4444 24.8585 33.2991C24.9641 33.1532 25.0026 32.9694 24.9629 32.7936L24.6191 31.2677L25.7914 30.2371C25.9264 30.1186 26.0039 29.947 26.0039 29.7675C26.0039 29.588 25.9264 29.4164 25.7914 29.298L24.6185 28.2667L24.9574 26.7397C24.9959 26.5638 24.9574 26.3806 24.8518 26.2353C24.7455 26.09 24.5825 25.9978 24.4036 25.9813L22.8478 25.8397L22.2324 24.4121C22.1615 24.2467 22.0223 24.1203 21.8514 24.0647C21.681 24.0104 21.4936 24.0305 21.3391 24.1221L19.9958 24.9195L18.658 24.1221C18.5042 24.0305 18.3173 24.0086 18.1458 24.0647C17.9742 24.1203 17.835 24.2467 17.7641 24.4121L17.1481 25.8409L15.5911 25.9881C15.4122 26.0045 15.2492 26.098 15.1435 26.2433C15.0379 26.3886 15.0001 26.5724 15.0397 26.7482L15.3829 28.2679L14.2118 29.298C14.0769 29.4171 13.9993 29.588 13.9993 29.7675C13.9993 29.947 14.0769 30.118 14.2118 30.2371L15.3829 31.2671L15.0397 32.7868C15.0001 32.9627 15.0379 33.1465 15.1435 33.2918C15.2492 33.4371 15.4122 33.5305 15.5911 33.547L17.1475 33.6942L17.2006 33.8178V35.6883H1.25047Z" fill="#C4C4C4"/>
</svg>
