<svg width="29" height="21" viewBox="0 0 29 21" fill="none" xmlns="http://www.w3.org/2000/svg">
<path d="M26.9057 5.88242H22.8463V7.13147H26.9057C27.2442 7.13147 27.5302 7.4175 27.5302 7.75599V9.00503H22.8463V11.8154H27.5302V18.0606C27.5302 18.3991 27.2442 18.6851 26.9057 18.6851H9.10684C8.76834 18.6851 8.48231 18.3991 8.48231 18.0606V14.3135H20.3482C21.3787 14.3135 22.2218 13.4704 22.2218 12.4399V2.13529C22.2218 1.58415 21.9792 1.08827 21.5973 0.744787C21.265 0.445641 20.8276 0.261719 20.3482 0.261719H2.54935C1.51889 0.261719 0.675781 1.10482 0.675781 2.13529V12.4399C0.675781 13.4704 1.51889 14.3135 2.54935 14.3135H7.23327V18.0606C7.23327 19.0911 8.07637 19.9342 9.10684 19.9342H26.9057C27.9362 19.9342 28.7793 19.0911 28.7793 18.0606V7.75599C28.7793 6.72553 27.9362 5.88242 26.9057 5.88242ZM1.92483 12.4399V2.13529C1.92483 1.7968 2.21086 1.51076 2.54935 1.51076H20.3482C20.6867 1.51076 20.9728 1.7968 20.9728 2.13529V12.4399C20.9728 12.7784 20.6867 13.0644 20.3482 13.0644H2.54935C2.21086 13.0644 1.92483 12.7784 1.92483 12.4399Z" fill="#C4C4C4" stroke="black" stroke-width="0.3"/>
<path d="M4.42311 6.81769H7.54572C8.06096 6.81769 8.48251 6.39613 8.48251 5.8809V4.3196C8.48251 3.80437 8.06096 3.38281 7.54572 3.38281H4.42311C3.90788 3.38281 3.48633 3.80437 3.48633 4.3196V5.8809C3.48633 6.39613 3.90788 6.81769 4.42311 6.81769Z" fill="#C4C4C4" stroke="black" stroke-width="0.3"/>
</svg>
