<svg width="23" height="22" viewBox="0 0 23 22" fill="none" xmlns="http://www.w3.org/2000/svg">
<path d="M21.6347 8.34193C21.7586 8.34193 21.8775 8.2927 21.9651 8.20506C22.0528 8.11742 22.102 7.99856 22.102 7.87463V5.62926C22.1035 5.5366 22.0774 5.44559 22.0271 5.3678C21.9768 5.29 21.9044 5.22892 21.8193 5.19233L11.5691 0.799719C11.5108 0.774648 11.448 0.761719 11.3845 0.761719C11.321 0.761719 11.2582 0.774648 11.1999 0.799719L0.949709 5.19233C0.865682 5.22846 0.794105 5.28845 0.74385 5.36487C0.693595 5.44129 0.666872 5.53078 0.666993 5.62225V7.86762C0.666993 7.99156 0.716226 8.11041 0.803861 8.19805C0.891497 8.28569 1.01036 8.33492 1.13429 8.33492H2.14132V18.9777H0.942699V19.9123H21.5903V18.9777H20.6277V8.34193H21.6347ZM1.60159 5.93767L11.3845 1.73665L21.1674 5.94235V7.412H1.60159V5.93767ZM9.0223 8.34193V18.9777H6.40075V8.34193H9.0223ZM9.9569 8.34193H12.5784V18.9777H9.9569V8.34193ZM13.513 8.34193H16.1346V18.9777H13.513V8.34193ZM3.07592 8.34193H5.46616V18.9777H3.07592V8.34193ZM19.6931 18.9777H17.0692V8.34193H19.6931V18.9777Z" fill="#C4C4C4"/>
<path d="M11.3841 2.97656C11.0565 2.97656 10.7362 3.07372 10.4638 3.25575C10.1913 3.43777 9.97902 3.69649 9.85364 3.99919C9.72826 4.30189 9.69545 4.63498 9.75937 4.95632C9.82329 5.27766 9.98106 5.57284 10.2127 5.80451C10.4444 6.03619 10.7396 6.19396 11.0609 6.25788C11.3823 6.3218 11.7154 6.289 12.0181 6.16361C12.3208 6.03823 12.5795 5.8259 12.7615 5.55348C12.9435 5.28106 13.0407 4.96078 13.0407 4.63314C13.0401 4.19398 12.8653 3.77298 12.5548 3.46244C12.2443 3.15191 11.8233 2.97718 11.3841 2.97656ZM11.3841 5.35745C11.2413 5.35745 11.1017 5.31511 10.983 5.23578C10.8643 5.15644 10.7717 5.04369 10.7171 4.91176C10.6625 4.77984 10.6482 4.63467 10.676 4.49462C10.7039 4.35457 10.7726 4.22593 10.8736 4.12496C10.9746 4.02399 11.1032 3.95523 11.2433 3.92737C11.3833 3.89951 11.5285 3.91381 11.6604 3.96845C11.7923 4.0231 11.9051 4.11564 11.9844 4.23437C12.0637 4.35309 12.1061 4.49268 12.1061 4.63547C12.1055 4.82677 12.0292 5.01005 11.8939 5.14531C11.7587 5.28057 11.5754 5.35684 11.3841 5.35745Z" fill="#C4C4C4"/>
<path d="M22.7583 20.3711H0.0078125V21.3057H22.7583V20.3711Z" fill="#C4C4C4"/>
</svg>
