<svg width="27" height="27" viewBox="0 0 27 27" fill="none" xmlns="http://www.w3.org/2000/svg">
<path d="M8.95703 8.32445C8.95703 8.37952 8.95703 8.43459 8.95703 8.48676C8.96656 8.62723 9.02898 8.75887 9.13172 8.85515C9.23445 8.95142 9.36985 9.00518 9.51064 9.00559H17.4177C17.5585 9.00518 17.6939 8.95142 17.7967 8.85515C17.8994 8.75887 17.9618 8.62723 17.9713 8.48676C17.9713 8.43169 17.9713 8.37662 17.9713 8.32445C17.9713 6.65491 16.867 5.21726 15.2931 4.57669C15.662 4.21348 15.9144 3.74875 16.0183 3.24164C16.1222 2.73453 16.0729 2.20797 15.8766 1.72898C15.6804 1.24998 15.346 0.840204 14.9162 0.551792C14.4863 0.26338 13.9804 0.109375 13.4627 0.109375C12.9451 0.109375 12.4392 0.26338 12.0093 0.551792C11.5794 0.840204 11.2451 1.24998 11.0489 1.72898C10.8526 2.20797 10.8033 2.73453 10.9072 3.24164C11.0111 3.74875 11.2635 4.21348 11.6323 4.57669C10.0614 5.21726 8.95703 6.65491 8.95703 8.32445ZM13.4671 1.22893C13.8638 1.22893 14.2442 1.38651 14.5247 1.66699C14.8051 1.94747 14.9627 2.32789 14.9627 2.72456C14.9627 3.12122 14.8051 3.50164 14.5247 3.78212C14.2442 4.0626 13.8638 4.22018 13.4671 4.22018C13.0704 4.22018 12.69 4.0626 12.4095 3.78212C12.129 3.50164 11.9715 3.12122 11.9715 2.72456C11.9715 2.32789 12.129 1.94747 12.4095 1.66699C12.69 1.38651 13.0704 1.22893 13.4671 1.22893ZM13.4671 5.3361C15.1772 5.3361 16.5917 6.45492 16.8264 7.90417H10.1019C10.3367 6.44912 11.7541 5.3361 13.4671 5.3361Z" fill="#C4C4C4"/>
<path d="M6.68471 21.772C7.05353 21.4088 7.30596 20.9441 7.40986 20.437C7.51377 19.9298 7.46445 19.4033 7.26819 18.9243C7.07193 18.4453 6.7376 18.0355 6.30775 17.7471C5.8779 17.4587 5.37196 17.3047 4.85431 17.3047C4.33667 17.3047 3.83073 17.4587 3.40087 17.7471C2.97102 18.0355 2.63669 18.4453 2.44043 18.9243C2.24417 19.4033 2.19485 19.9298 2.29876 20.437C2.40266 20.9441 2.65509 21.4088 3.02391 21.772C1.44713 22.4126 0.345703 23.8502 0.345703 25.5198C0.345703 25.5748 0.345703 25.6299 0.345703 25.6821C0.353876 25.8238 0.416187 25.957 0.519759 26.0541C0.623331 26.1512 0.760248 26.2048 0.902214 26.2038H8.80351C8.9445 26.2041 9.08029 26.1506 9.18317 26.0541C9.28605 25.9577 9.34826 25.8257 9.35712 25.685C9.35712 25.6299 9.35712 25.5748 9.35712 25.5227C9.36292 23.8502 8.2499 22.4126 6.68471 21.772ZM4.85286 18.4242C5.24953 18.4242 5.62994 18.5818 5.91043 18.8623C6.19091 19.1428 6.34848 19.5232 6.34848 19.9199C6.34848 20.3165 6.19091 20.6969 5.91043 20.9774C5.62994 21.2579 5.24953 21.4155 4.85286 21.4155C4.4562 21.4155 4.07578 21.2579 3.7953 20.9774C3.51481 20.6969 3.35724 20.3165 3.35724 19.9199C3.35724 19.5232 3.51481 19.1428 3.7953 18.8623C4.07578 18.5818 4.4562 18.4242 4.85286 18.4242ZM1.48771 25.0908C1.72249 23.6415 3.13985 22.5256 4.84417 22.5227C6.55428 22.5227 7.96874 23.6415 8.20352 25.0908H1.48771Z" fill="#C4C4C4"/>
<path d="M23.9015 21.772C24.2703 21.4088 24.5228 20.9441 24.6267 20.437C24.7306 19.9298 24.6812 19.4033 24.485 18.9243C24.2887 18.4453 23.9544 18.0355 23.5245 17.7471C23.0947 17.4587 22.5888 17.3047 22.0711 17.3047C21.5535 17.3047 21.0475 17.4587 20.6177 17.7471C20.1878 18.0355 19.8535 18.4453 19.6572 18.9243C19.461 19.4033 19.4117 19.9298 19.5156 20.437C19.6195 20.9441 19.8719 21.4088 20.2407 21.772C18.6639 22.4126 17.5625 23.8502 17.5625 25.5198C17.5625 25.5748 17.5625 25.6299 17.5625 25.6821C17.5707 25.8258 17.6347 25.9607 17.7407 26.0582C17.8468 26.1556 17.9867 26.2078 18.1306 26.2038H26.0319C26.1729 26.2041 26.3087 26.1506 26.4116 26.0541C26.5144 25.9577 26.5767 25.8257 26.5855 25.685C26.5855 25.6299 26.5855 25.5748 26.5855 25.5227C26.5913 23.8502 25.487 22.4126 23.9015 21.772ZM22.0813 18.4242C22.4779 18.4242 22.8583 18.5818 23.1388 18.8623C23.4193 19.1428 23.5769 19.5232 23.5769 19.9199C23.5769 20.3165 23.4193 20.6969 23.1388 20.9774C22.8583 21.2579 22.4779 21.4155 22.0813 21.4155C21.6846 21.4155 21.3042 21.2579 21.0237 20.9774C20.7432 20.6969 20.5856 20.3165 20.5856 19.9199C20.5856 19.5232 20.7432 19.1428 21.0237 18.8623C21.3042 18.5818 21.6846 18.4242 22.0813 18.4242ZM18.7161 25.0908C18.9509 23.6415 20.3682 22.5256 22.0726 22.5227H22.087C23.7943 22.5227 25.2087 23.6415 25.4435 25.0908H18.7161Z" fill="#C4C4C4"/>
<path d="M21.8956 16.5287C21.9688 16.5291 22.0413 16.5149 22.109 16.4871C22.1767 16.4593 22.2382 16.4183 22.29 16.3665C22.3417 16.3148 22.3827 16.2533 22.4105 16.1856C22.4384 16.1179 22.4525 16.0454 22.4521 15.9722V11.6708C22.4521 11.524 22.3938 11.3832 22.29 11.2793C22.1861 11.1755 22.0453 11.1172 21.8985 11.1172H5.03796C4.96501 11.1168 4.89271 11.1309 4.82521 11.1585C4.75771 11.1862 4.69633 11.2269 4.64462 11.2783C4.5929 11.3298 4.55186 11.3909 4.52386 11.4583C4.49586 11.5256 4.48144 11.5979 4.48145 11.6708V15.6273C4.48145 15.7745 4.53992 15.9156 4.64402 16.0197C4.74811 16.1238 4.8893 16.1823 5.03651 16.1823C5.18372 16.1823 5.3249 16.1238 5.42899 16.0197C5.53309 15.9156 5.59157 15.7745 5.59157 15.6273V12.2273H21.342V15.9722C21.3416 16.0451 21.3556 16.1174 21.3833 16.1849C21.4109 16.2524 21.4517 16.3138 21.5031 16.3655C21.5546 16.4172 21.6157 16.4583 21.6831 16.4863C21.7504 16.5143 21.8227 16.5287 21.8956 16.5287Z" fill="#C4C4C4"/>
</svg>
